<?xml version="1.0" encoding="UTF-8"?>
<svg id="katman_1" data-name="katman 1" xmlns="http://www.w3.org/2000/svg" viewBox="0 0 811.57 360.21">
  <defs>
    <style>
      .cls-1 {
        fill: #52f24d;
      }

      .cls-1, .cls-2 {
        stroke-width: 0px;
      }

      .cls-2 {
        fill: #f7eeff;
      }
    </style>
  </defs>
  <g>
    <path class="cls-2" d="m201.27,121.47c-3.69-8.34-8.14-15.85-13.38-22.54-5.24-6.69-11.11-12.36-17.65-17.01-6.53-4.66-13.65-8.24-21.37-10.76-7.73-2.52-15.88-3.78-24.48-3.78-9.5,0-18.31,1.63-26.42,4.9-8.11,3.27-15.38,7.95-21.81,14.05-6.43,6.11-11.98,13.58-16.63,22.4-4.65,8.82-8.27,18.8-10.85,29.91v-65.44H0v287.07h48.67v-138.74c2.58,11.12,6.21,21.07,10.85,29.86,4.66,8.79,10.2,16.26,16.63,22.4,6.43,6.14,13.7,10.84,21.81,14.11,8.12,3.26,16.89,4.9,26.32,4.9,8.6,0,16.76-1.26,24.48-3.78,7.72-2.52,14.87-6.12,21.43-10.81,6.56-4.68,12.46-10.37,17.69-17.06,5.24-6.69,9.69-14.21,13.38-22.54,3.69-8.34,6.51-17.43,8.48-27.29,1.97-9.85,2.96-20.28,2.96-31.27s-.99-21.41-2.96-31.27c-1.97-9.85-4.8-18.96-8.48-27.29Zm-41.1,88.96c-2.46,8.76-6.09,16.1-10.91,22.06-4.82,5.94-10.76,10.43-17.84,13.47-7.08,3.04-15.27,4.56-24.57,4.56s-17.28-1.58-24.48-4.75c-7.21-3.17-13.32-7.77-18.33-13.81-5.01-6.04-8.82-13.43-11.44-22.16-2.61-8.72-3.92-18.64-3.92-29.76s1.31-21.04,3.92-29.76c2.62-8.72,6.42-16.09,11.4-22.1,4.98-6.01,11.07-10.6,18.27-13.77,7.21-3.17,15.4-4.76,24.58-4.76s17.49,1.52,24.57,4.56c7.08,3.03,13.02,7.51,17.84,13.43,4.82,5.91,8.45,13.25,10.91,22.01,2.45,8.76,3.68,18.89,3.68,30.39s-1.23,21.63-3.68,30.4Z"/>
    <path class="cls-2" d="m386.64,187.11c0,9.95-1.23,18.82-3.68,26.61-2.46,7.79-6.03,14.35-10.71,19.68-4.69,5.33-10.43,9.38-17.21,12.16s-14.51,4.17-23.17,4.17c-32.12,0-48.19-19.84-48.19-59.53v-117.02h-48.67v121.87c0,15.51,1.65,29.33,4.94,41.45,3.3,12.12,8.13,22.35,14.49,30.69,6.37,8.34,14.15,14.69,23.36,19.05s19.73,6.55,31.56,6.55c9.95,0,19.13-1.54,27.53-4.61,8.4-3.07,15.88-7.54,22.44-13.43,6.56-5.88,12.15-13.08,16.77-21.62,4.62-8.53,8.13-18.22,10.52-29.08v62.92h48.67V73.19h-48.67v113.92Z"/>
    <polygon class="cls-2" points="552.06 286.99 552.06 159.23 530.15 159.23 530.15 140.93 511.98 140.93 511.85 140.93 511.85 0 463.29 0 463.29 159.23 475.39 159.23 475.39 177.52 493.56 177.52 503.5 177.52 503.5 286.99 552.06 286.99"/>
    <polygon class="cls-2" points="774.99 143.46 774.99 180.04 774.99 196.18 774.99 216.64 811.57 216.64 811.57 196.18 811.57 180.04 811.57 143.46 774.99 143.46"/>
    <rect class="cls-2" x="738.4" y="106.87" width="36.59" height="36.59"/>
    <rect class="cls-2" x="738.4" y="216.64" width="36.59" height="36.59"/>
    <polygon class="cls-2" points="681.04 253.23 665.21 253.23 665.21 289.83 681.04 289.83 701.8 289.83 738.4 289.83 738.4 253.23 701.8 253.23 681.04 253.23"/>
    <polygon class="cls-2" points="628.63 216.64 628.63 143.46 665.21 143.46 665.21 106.87 628.63 106.87 628.63 73.21 579.92 73.21 579.92 73.21 543.33 73.21 543.33 91.51 579.92 91.51 579.92 341.91 543.33 341.91 543.33 360.21 579.92 360.21 579.92 360.2 628.62 360.2 628.62 360.21 665.21 360.21 665.21 341.91 628.63 341.91 628.63 253.23 665.21 253.23 665.21 216.64 628.63 216.64"/>
    <polygon class="cls-2" points="701.8 106.87 738.4 106.87 738.4 70.27 701.8 70.27 681.04 70.27 665.21 70.27 665.21 106.87 681.04 106.87 701.8 106.87"/>
  </g>
  <polygon class="cls-1" points="774.99 143.46 774.99 216.64 738.4 216.64 738.4 253.23 665.21 253.23 665.21 216.64 628.63 216.64 628.63 143.46 665.21 143.46 665.21 106.87 738.4 106.87 738.4 143.46 774.99 143.46"/>
</svg>